<?xml version="1.0" encoding="utf-8"?>
<!-- Generator: Adobe Illustrator 16.0.0, SVG Export Plug-In . SVG Version: 6.00 Build 0)  -->
<!DOCTYPE svg PUBLIC "-//W3C//DTD SVG 1.1//EN" "http://www.w3.org/Graphics/SVG/1.1/DTD/svg11.dtd">
<svg version="1.1" id="레이어_1" xmlns="http://www.w3.org/2000/svg" xmlns:xlink="http://www.w3.org/1999/xlink" x="0px"
	 y="0px" width="327.417px" height="164.584px" viewBox="0 0 327.417 164.584" enable-background="new 0 0 327.417 164.584"
	 xml:space="preserve">
<path fill="#FFFFFF" d="M228.701,48.054"/>
<path fill="#FFFFFF" d="M163.667,104.334c-24.936,0-41.454-8.116-42.145-8.461c-0.677-0.339-1.105-1.032-1.105-1.789v-24.75
	c0-1.104,0.896-2,2-2s2,0.896,2,2v23.464c4.047,1.762,18.865,7.536,39.25,7.536c20.436,0,35.213-5.771,39.25-7.534V69.334
	c0-1.104,0.896-2,2-2c1.104,0,2,0.896,2,2v24.75c0,0.757-0.429,1.45-1.105,1.789C205.121,96.219,188.602,104.334,163.667,104.334z"
	/>
<g>
	<path fill="#FFFFFF" d="M233.705,74.506l-0.004-28.951l2.86-1.431c0.678-0.339,1.104-1.032,1.104-1.789s-0.428-1.45-1.104-1.789
		l-72-36c-0.563-0.281-1.226-0.281-1.789,0l-29.422,14.71c-0.988,0.494-1.388,1.695-0.895,2.684
		c0.494,0.988,1.695,1.388,2.684,0.895L163.667,8.57l67.528,33.764l-67.528,33.764L96.139,42.334l7.634-3.817
		c0.988-0.494,1.388-1.695,0.895-2.684c-0.495-0.988-1.697-1.389-2.684-0.895l-11.212,5.606c-0.677,0.339-1.105,1.032-1.105,1.789
		s0.428,1.45,1.105,1.789l72,36c0.282,0.141,0.588,0.211,0.895,0.211s0.613-0.07,0.895-0.211l64.139-32.068v26.453l-0.002-0.002
		c-3.982,1.099-6.914,4.753-6.914,9.08c0,5.191,4.223,9.417,9.416,9.417c5.191,0,9.416-4.224,9.416-9.417
		C240.617,79.259,237.686,75.606,233.705,74.506z M231.201,89.001c-2.992,0-5.416-2.425-5.416-5.417s2.424-5.417,5.416-5.417
		c2.991,0,5.416,2.425,5.416,5.417S234.192,89.001,231.201,89.001z"/>
</g>
<g enable-background="new    ">
	<path fill="#FFFFFF" d="M36.877,117.352v6.598H25.649v33.04h-8.747v-33.04H5.733v-6.598H36.877z"/>
	<path fill="#FFFFFF" d="M50.413,131.732c2.364-2.989,5.969-4.071,8.805-4.071c5.851,0,10.46,3.711,10.46,12.164v17.164h-8.747
		v-16.546c0-3.659-1.3-6.494-5.082-6.494c-2.187,0-5.555,1.34-5.555,5.618v17.422h-8.747v-41.441h8.747v16.185H50.413z"/>
	<path fill="#FFFFFF" d="M84.042,144.928c0.236,4.897,4.255,6.855,8.982,6.855c3.25,0,5.792-0.515,8.038-1.186l1.241,5.258
		c-2.718,1.03-6.56,1.649-10.637,1.649c-10.165,0-15.957-5.566-15.957-14.484c0-8.246,5.437-15.359,15.07-15.359
		c7.978,0,13.179,4.947,13.179,14.226c0,1.134-0.059,2.216-0.236,3.041H84.042z M95.861,139.618c0.059-2.988-1.3-6.648-5.614-6.648
		c-4.196,0-5.969,3.814-6.205,6.648H95.861z"/>
	<path fill="#FFFFFF" d="M148.283,150.546v6.443h-24.999v-39.638h8.747v33.194H148.283z"/>
	<path fill="#FFFFFF" d="M160.222,144.928c0.236,4.897,4.255,6.855,8.982,6.855c3.25,0,5.791-0.515,8.037-1.186l1.241,5.258
		c-2.718,1.03-6.56,1.649-10.638,1.649c-10.165,0-15.956-5.566-15.956-14.484c0-8.246,5.437-15.359,15.069-15.359
		c7.979,0,13.18,4.947,13.18,14.226c0,1.134-0.06,2.216-0.236,3.041H160.222z M172.042,139.618c0.06-2.988-1.3-6.648-5.614-6.648
		c-4.196,0-5.969,3.814-6.205,6.648H172.042z"/>
	<path fill="#FFFFFF" d="M207.148,134.619c-1.123-0.464-2.719-0.928-5.143-0.928c-5.495,0-8.687,3.866-8.687,8.917
		c0,5.618,3.724,8.865,8.746,8.865c2.187,0,3.901-0.36,5.319-0.928l0.945,5.722c-1.478,0.618-4.492,1.237-7.979,1.237
		c-9.633,0-15.896-5.464-15.896-14.588c0-8.607,6.383-15.205,17.256-15.205c2.837,0,5.438,0.567,6.855,1.082L207.148,134.619z"/>
	<path fill="#FFFFFF" d="M215.365,128.279v-5.258l8.627-2.216v7.474h7.27v5.618h-7.27v12.474c0,3.454,1.242,4.897,3.9,4.897
		c1.242,0,1.951-0.104,2.838-0.258l0.117,5.824c-1.182,0.412-3.309,0.67-5.85,0.67c-9.456,0-9.633-7.165-9.633-10.36v-13.247h-4.314
		v-5.618H215.365z"/>
	<path fill="#FFFFFF" d="M264.476,128.279v19.947c0,3.402,0.177,6.341,0.295,8.763h-7.623l-0.414-3.814h-0.178
		c-1.359,1.855-4.373,4.381-9.455,4.381c-6.265,0-10.52-3.557-10.52-12.164v-17.112h8.746v15.979c0,4.329,1.418,7.062,5.023,7.062
		c2.837,0,5.378-2.113,5.378-5.36v-17.68H264.476z"/>
	<path fill="#FFFFFF" d="M280.257,133.278c1.536-3.711,5.082-5.617,8.155-5.617c0.827,0,1.358,0.051,1.95,0.154v7.268
		c-0.65-0.104-1.359-0.154-2.246-0.154c-3.959,0-6.973,2.319-6.973,7.216v14.845h-8.747v-19.741c0-3.557-0.118-6.392-0.236-8.969
		h7.505l0.355,4.999H280.257z"/>
	<path fill="#FFFFFF" d="M301.769,144.928c0.236,4.897,4.256,6.855,8.982,6.855c3.251,0,5.792-0.515,8.038-1.186l1.241,5.258
		c-2.719,1.03-6.561,1.649-10.638,1.649c-10.165,0-15.956-5.566-15.956-14.484c0-8.246,5.437-15.359,15.069-15.359
		c7.978,0,13.179,4.947,13.179,14.226c0,1.134-0.059,2.216-0.236,3.041H301.769z M313.589,139.618
		c0.059-2.988-1.301-6.648-5.615-6.648c-4.195,0-5.969,3.814-6.205,6.648H313.589z"/>
</g>
</svg>
