<?xml version="1.0" encoding="utf-8"?>
<!-- Generator: Adobe Illustrator 16.0.0, SVG Export Plug-In . SVG Version: 6.00 Build 0)  -->
<!DOCTYPE svg PUBLIC "-//W3C//DTD SVG 1.1//EN" "http://www.w3.org/Graphics/SVG/1.1/DTD/svg11.dtd">
<svg version="1.1" id="레이어_1" xmlns="http://www.w3.org/2000/svg" xmlns:xlink="http://www.w3.org/1999/xlink" x="0px"
	 y="0px" width="222.5px" height="154px" viewBox="-26.625 -20.354 222.5 154" enable-background="new -26.625 -20.354 222.5 154"
	 xml:space="preserve">
<path fill="#FFFFFF" d="M147.598,50.862"/>
<path fill="#FFFFFF" d="M82.564,108.142c-25.183,0-41.895-8.217-42.592-8.566c-1.022-0.511-1.658-1.539-1.658-2.684v-24.75
	c0-1.654,1.346-3,3-3s3,1.346,3,3v22.804c4.732,1.989,18.976,7.195,38.25,7.195c19.313,0,33.528-5.204,38.25-7.192V72.142
	c0-1.654,1.346-3,3-3c1.653,0,3,1.346,3,3v24.75c0,1.145-0.635,2.172-1.657,2.684C124.455,99.925,107.698,108.142,82.564,108.142z"
	/>
<path fill="#FFFFFF" d="M153.602,76.583l-0.004-27.604l2.307-1.154c1.023-0.512,1.658-1.54,1.658-2.684
	c0-1.142-0.635-2.17-1.658-2.684l-72-36c-0.414-0.207-0.879-0.315-1.342-0.315s-0.926,0.109-1.341,0.316L51.8,21.169
	c-1.478,0.739-2.081,2.545-1.342,4.026c0.512,1.023,1.541,1.659,2.686,1.659c0.467,0,0.917-0.106,1.34-0.316l28.081-14.042
	l65.291,32.646L82.564,77.789L17.273,45.142l5.845-2.922c1.479-0.739,2.081-2.545,1.342-4.026c-0.513-1.023-1.542-1.659-2.686-1.659
	c-0.461,0-0.925,0.109-1.339,0.317L9.221,42.458c-1.022,0.512-1.657,1.54-1.657,2.683s0.635,2.17,1.658,2.684l72.001,36
	c0.415,0.207,0.878,0.314,1.341,0.314s0.926-0.107,1.342-0.314l62.691-31.347v24.103c-4.107,1.467-6.916,5.396-6.916,9.813
	c0,5.744,4.672,10.417,10.416,10.417s10.416-4.673,10.416-10.417C160.514,81.982,157.708,78.052,153.602,76.583z M150.098,91.81
	c-2.992,0-5.416-2.426-5.416-5.417c0-2.992,2.424-5.417,5.416-5.417c2.991,0,5.416,2.425,5.416,5.417
	C155.514,89.384,153.089,91.81,150.098,91.81z"/>
</svg>
