<?xml version="1.0" encoding="utf-8"?>
<!-- Generator: Adobe Illustrator 16.0.0, SVG Export Plug-In . SVG Version: 6.00 Build 0)  -->
<!DOCTYPE svg PUBLIC "-//W3C//DTD SVG 1.1//EN" "http://www.w3.org/Graphics/SVG/1.1/DTD/svg11.dtd">
<svg version="1.1" id="레이어_1" xmlns="http://www.w3.org/2000/svg" xmlns:xlink="http://www.w3.org/1999/xlink" x="0px"
	 y="0px" width="538.5px" height="106.292px" viewBox="0 0 538.5 106.292" enable-background="new 0 0 538.5 106.292"
	 xml:space="preserve">
<path fill="#FFFFFF" d="M143.598,45.862"/>
<path fill="#FFFFFF" d="M78.564,103.142c-25.182,0-41.894-8.217-42.592-8.566c-1.022-0.511-1.658-1.539-1.658-2.684v-24.75
	c0-1.654,1.346-3,3-3s3,1.346,3,3v22.804c4.732,1.989,18.976,7.195,38.25,7.195c19.313,0,33.529-5.204,38.25-7.192V67.142
	c0-1.654,1.346-3,3-3s3,1.346,3,3v24.75c0,1.144-0.635,2.172-1.657,2.684C120.455,94.925,103.698,103.142,78.564,103.142z"/>
<path fill="#FFFFFF" d="M149.602,71.583l-0.004-27.602l2.307-1.154c1.022-0.512,1.657-1.54,1.657-2.684
	c0-1.142-0.634-2.17-1.657-2.684l-72.001-36c-0.414-0.207-0.878-0.315-1.341-0.315s-0.927,0.109-1.342,0.316L47.8,16.169
	c-1.478,0.739-2.081,2.545-1.342,4.026c0.512,1.023,1.541,1.659,2.686,1.659c0.467,0,0.917-0.106,1.34-0.316L78.564,7.496
	l65.292,32.646L78.564,72.788L13.273,40.142l5.845-2.922c1.479-0.739,2.081-2.545,1.342-4.026c-0.513-1.023-1.542-1.659-2.686-1.659
	c-0.461,0-0.925,0.109-1.339,0.317L5.221,37.458c-1.022,0.512-1.657,1.54-1.657,2.683c0,1.143,0.635,2.17,1.658,2.684l72.001,36.001
	c0.415,0.206,0.878,0.315,1.341,0.315s0.926-0.109,1.342-0.316l62.692-31.345v24.101c-4.108,1.468-6.916,5.398-6.916,9.813
	c0,5.744,4.672,10.417,10.416,10.417s10.416-4.673,10.416-10.417C156.514,76.982,153.708,73.052,149.602,71.583z M146.098,86.81
	c-2.992,0-5.416-2.426-5.416-5.417c0-2.992,2.424-5.417,5.416-5.417c2.991,0,5.416,2.425,5.416,5.417
	C151.514,84.384,149.089,86.81,146.098,86.81z"/>
<g enable-background="new    ">
	<path fill="#FFFFFF" d="M215.717,36.025v6.598H204.49v33.041h-8.747V42.623h-11.169v-6.598H215.717z"/>
	<path fill="#FFFFFF" d="M229.254,50.404c2.363-2.988,5.969-4.07,8.805-4.07c5.851,0,10.46,3.711,10.46,12.164v17.164h-8.747V59.115
		c0-3.658-1.301-6.493-5.082-6.493c-2.188,0-5.555,1.34-5.555,5.618v17.422h-8.748V34.22h8.748v16.187h0.119V50.404L229.254,50.404z
		"/>
	<path fill="#FFFFFF" d="M262.883,63.6c0.235,4.897,4.254,6.854,8.98,6.854c3.25,0,5.793-0.515,8.039-1.187l1.24,5.258
		c-2.718,1.03-6.56,1.649-10.638,1.649c-10.164,0-15.957-5.565-15.957-14.483c0-8.246,5.438-15.359,15.07-15.359
		c7.979,0,13.18,4.947,13.18,14.227c0,1.133-0.06,2.215-0.235,3.04H262.883L262.883,63.6z M274.702,58.291
		c0.059-2.988-1.3-6.647-5.613-6.647c-4.197,0-5.97,3.813-6.205,6.647H274.702z"/>
	<path fill="#FFFFFF" d="M327.124,69.218v6.443h-24.998V36.023h8.746v33.193L327.124,69.218L327.124,69.218z"/>
	<path fill="#FFFFFF" d="M339.063,63.6c0.236,4.897,4.256,6.854,8.982,6.854c3.25,0,5.791-0.515,8.037-1.187l1.24,5.258
		c-2.719,1.03-6.562,1.649-10.639,1.649c-10.164,0-15.955-5.565-15.955-14.483c0-8.246,5.438-15.359,15.067-15.359
		c7.979,0,13.181,4.947,13.181,14.227c0,1.133-0.06,2.215-0.235,3.04H339.063L339.063,63.6z M350.883,58.291
		c0.061-2.988-1.301-6.647-5.613-6.647c-4.197,0-5.971,3.813-6.205,6.647H350.883z"/>
	<path fill="#FFFFFF" d="M385.989,53.292c-1.123-0.464-2.72-0.929-5.144-0.929c-5.496,0-8.688,3.867-8.688,8.918
		c0,5.617,3.725,8.865,8.746,8.865c2.188,0,3.9-0.361,5.318-0.93l0.944,5.723c-1.478,0.618-4.492,1.236-7.979,1.236
		c-9.633,0-15.896-5.463-15.896-14.588c0-8.605,6.383-15.205,17.256-15.205c2.839,0,5.438,0.567,6.854,1.082L385.989,53.292z"/>
	<path fill="#FFFFFF" d="M394.206,46.951v-5.258l8.627-2.215v7.473h7.271v5.619h-7.271v12.475c0,3.453,1.242,4.896,3.899,4.896
		c1.242,0,1.951-0.104,2.838-0.259l0.117,5.823c-1.182,0.412-3.309,0.67-5.85,0.67c-9.457,0-9.634-7.164-9.634-10.359V52.57h-4.313
		v-5.619H394.206L394.206,46.951z"/>
	<path fill="#FFFFFF" d="M443.317,46.951v19.947c0,3.402,0.177,6.342,0.295,8.764h-7.623l-0.414-3.813h-0.178
		c-1.359,1.854-4.373,4.381-9.455,4.381c-6.267,0-10.521-3.558-10.521-12.164V46.953h8.746v15.979c0,4.329,1.418,7.063,5.022,7.063
		c2.837,0,5.378-2.113,5.378-5.361V46.955h8.748L443.317,46.951L443.317,46.951z"/>
	<path fill="#FFFFFF" d="M459.098,51.951c1.535-3.711,5.082-5.617,8.154-5.617c0.827,0,1.358,0.051,1.95,0.154v7.268
		c-0.649-0.104-1.358-0.153-2.245-0.153c-3.959,0-6.974,2.319-6.974,7.217v14.845h-8.747V55.921c0-3.557-0.118-6.394-0.236-8.969
		h7.506l0.354,4.998L459.098,51.951L459.098,51.951z"/>
	<path fill="#FFFFFF" d="M480.61,63.6c0.235,4.897,4.256,6.854,8.981,6.854c3.25,0,5.791-0.515,8.037-1.187l1.241,5.258
		c-2.719,1.03-6.563,1.649-10.638,1.649c-10.165,0-15.956-5.565-15.956-14.483c0-8.246,5.437-15.359,15.068-15.359
		c7.979,0,13.18,4.947,13.18,14.227c0,1.133-0.061,2.215-0.235,3.04H480.61L480.61,63.6z M492.43,58.291
		c0.06-2.988-1.301-6.647-5.614-6.647c-4.195,0-5.97,3.813-6.205,6.647H492.43z"/>
</g>
</svg>
