<?xml version="1.0" encoding="utf-8"?>
<!-- Generator: Adobe Illustrator 16.0.0, SVG Export Plug-In . SVG Version: 6.00 Build 0)  -->
<!DOCTYPE svg PUBLIC "-//W3C//DTD SVG 1.1//EN" "http://www.w3.org/Graphics/SVG/1.1/DTD/svg11.dtd">
<svg version="1.1" id="레이어_1" xmlns="http://www.w3.org/2000/svg" xmlns:xlink="http://www.w3.org/1999/xlink" x="0px"
	 y="0px" width="327.417px" height="164.584px" viewBox="0 0 327.417 164.584" enable-background="new 0 0 327.417 164.584"
	 xml:space="preserve">
<g>
	<path d="M227.201,46.777"/>
	<path d="M162.167,103.058c-24.937,0-41.455-8.117-42.146-8.461c-0.677-0.34-1.105-1.033-1.105-1.789v-24.75c0-1.104,0.896-2,2-2
		s2,0.896,2,2v23.462c4.047,1.764,18.866,7.537,39.25,7.537c20.436,0,35.212-5.771,39.25-7.535V68.057c0-1.104,0.896-2,2-2
		c1.104,0,2,0.896,2,2v24.75c0,0.756-0.43,1.447-1.104,1.789C203.621,94.94,187.102,103.058,162.167,103.058z"/>
	<g>
		<path d="M232.205,73.229l-0.004-28.951l2.86-1.431c0.678-0.339,1.104-1.032,1.104-1.789c0-0.757-0.432-1.45-1.104-1.789l-72-36
			c-0.563-0.281-1.226-0.281-1.789,0l-29.422,14.71c-0.988,0.494-1.388,1.695-0.896,2.684c0.494,0.988,1.695,1.388,2.685,0.895
			l28.528-14.265l67.527,33.764l-67.527,33.765L94.639,41.057l7.634-3.817c0.988-0.494,1.388-1.695,0.895-2.684
			c-0.495-0.988-1.697-1.389-2.684-0.895l-11.212,5.606c-0.677,0.339-1.105,1.032-1.105,1.789c0,0.757,0.428,1.45,1.105,1.789l72,36
			c0.282,0.141,0.588,0.211,0.896,0.211c0.307,0,0.612-0.07,0.895-0.211l64.14-32.068V73.23l-0.002-0.002
			c-3.98,1.1-6.914,4.753-6.914,9.08c0,5.191,4.223,9.417,9.416,9.417c5.19,0,9.416-4.227,9.416-9.417
			C239.117,77.981,236.186,74.329,232.205,73.229z M229.701,87.724c-2.992,0-5.416-2.425-5.416-5.417
			c0-2.992,2.424-5.417,5.416-5.417c2.991,0,5.416,2.425,5.416,5.417C235.117,85.299,232.692,87.724,229.701,87.724z"/>
	</g>
	<g enable-background="new    ">
		<path d="M35.377,116.075v6.598H24.149v33.04h-8.747v-33.04H4.233v-6.598H35.377z"/>
		<path d="M48.913,130.454c2.364-2.988,5.969-4.07,8.805-4.07c5.851,0,10.46,3.711,10.46,12.164v17.164h-8.747v-16.547
			c0-3.658-1.3-6.493-5.082-6.493c-2.187,0-5.555,1.341-5.555,5.618v17.422h-8.747v-41.441h8.747v16.188h0.119V130.454z"/>
		<path d="M82.542,143.649c0.236,4.896,4.255,6.854,8.982,6.854c3.25,0,5.792-0.516,8.038-1.188l1.241,5.26
			c-2.718,1.029-6.56,1.648-10.637,1.648c-10.165,0-15.957-5.564-15.957-14.482c0-8.246,5.437-15.359,15.07-15.359
			c7.978,0,13.179,4.947,13.179,14.229c0,1.134-0.059,2.216-0.236,3.039H82.542L82.542,143.649z M94.361,138.341
			c0.059-2.988-1.3-6.648-5.614-6.648c-4.196,0-5.969,3.814-6.205,6.648H94.361z"/>
		<path d="M146.783,149.269v6.443h-24.999v-39.639h8.747v33.193L146.783,149.269L146.783,149.269z"/>
		<path d="M158.722,143.649c0.236,4.896,4.255,6.854,8.982,6.854c3.25,0,5.791-0.516,8.037-1.188l1.237,5.26
			c-2.718,1.029-6.563,1.648-10.642,1.648c-10.163,0-15.953-5.564-15.953-14.482c0-8.246,5.438-15.359,15.066-15.359
			c7.979,0,13.182,4.947,13.182,14.229c0,1.134-0.061,2.216-0.234,3.039H158.722L158.722,143.649z M170.542,138.341
			c0.06-2.988-1.301-6.648-5.614-6.648c-4.196,0-5.97,3.814-6.205,6.648H170.542z"/>
		<path d="M205.648,133.342c-1.123-0.464-2.719-0.929-5.143-0.929c-5.496,0-8.688,3.867-8.688,8.918
			c0,5.617,3.726,8.865,8.746,8.865c2.188,0,3.899-0.361,5.317-0.93l0.945,5.723c-1.479,0.617-4.492,1.236-7.979,1.236
			c-9.634,0-15.896-5.463-15.896-14.588c0-8.605,6.383-15.205,17.256-15.205c2.838,0,5.438,0.565,6.854,1.082L205.648,133.342z"/>
		<path d="M213.865,127.001v-5.258l8.627-2.215v7.473h7.271v5.619h-7.271v12.474c0,3.454,1.242,4.897,3.9,4.897
			c1.242,0,1.951-0.104,2.838-0.26l0.117,5.824c-1.182,0.41-3.309,0.67-5.85,0.67c-9.457,0-9.637-7.164-9.637-10.359V132.62h-4.313
			v-5.619H213.865L213.865,127.001z"/>
		<path d="M262.976,127.001v19.947c0,3.402,0.177,6.342,0.295,8.764h-7.623l-0.414-3.814h-0.178
			c-1.359,1.855-4.373,4.381-9.455,4.381c-6.266,0-10.52-3.557-10.52-12.161v-17.111h8.746v15.979c0,4.328,1.418,7.063,5.021,7.063
			c2.837,0,5.378-2.111,5.378-5.357v-17.683h8.748L262.976,127.001L262.976,127.001z"/>
		<path d="M278.757,132.001c1.535-3.711,5.082-5.617,8.154-5.617c0.824,0,1.355,0.051,1.947,0.154v7.268
			c-0.646-0.104-1.355-0.154-2.242-0.154c-3.96,0-6.977,2.32-6.977,7.22v14.845h-8.747v-19.738c0-3.56-0.118-6.396-0.233-8.972
			h7.506l0.354,4.998L278.757,132.001L278.757,132.001z"/>
		<path d="M300.269,143.649c0.236,4.896,4.256,6.854,8.982,6.854c3.25,0,5.791-0.516,8.037-1.188l1.238,5.26
			c-2.719,1.029-6.563,1.648-10.638,1.648c-10.165,0-15.956-5.564-15.956-14.482c0-8.246,5.438-15.359,15.066-15.359
			c7.979,0,13.182,4.947,13.182,14.229c0,1.134-0.063,2.216-0.234,3.039H300.269L300.269,143.649z M312.089,138.341
			c0.059-2.988-1.301-6.648-5.615-6.648c-4.195,0-5.969,3.814-6.205,6.648H312.089z"/>
	</g>
</g>
</svg>
